<svg xmlns="http://www.w3.org/2000/svg" viewBox="-21.0 -920.0 1842.0 1121.0" role="img" aria-label="{and} logo">
<g transform="scale(1,-1)">
<path transform="translate(0,0)" d="M442 -111Q354 -111 303.0 -62.5Q252 -14 260 67L275 219Q279 260 261.0 281.0Q243 302 199 302H69V417H199Q243 417 261.0 438.0Q279 459 275 499L260 656Q252 735 303.0 782.5Q354 830 442 830H511V715H460Q423 715 403.0 696.5Q383 678 385 644L400 488Q405 437 373.5 403.5Q342 370 280 362Q342 353 373.5 318.0Q405 283 400 231L385 75Q382 42 402.5 23.5Q423 5 460 5H511V-111Z" fill="#2979FF"/>
<path transform="translate(600,0)" d="M223 -10Q128 -10 72.5 42.5Q17 95 17 183V249Q17 326 57.0 374.0Q97 422 165 430L143 460Q121 490 109.5 519.5Q98 549 98 576Q98 624 121.5 661.0Q145 698 186.5 719.0Q228 740 282 740Q340 740 383.5 715.5Q427 691 451.5 646.5Q476 602 476 544H361Q361 587 339.0 613.0Q317 639 282 639Q252 639 233.0 620.0Q214 601 214 571Q214 557 220.0 541.0Q226 525 236 512L420 269L496 365H624L482 185L621 0H490L415 100L396 76Q367 36 321.0 13.0Q275 -10 223 -10ZM227 94Q257 94 280.5 108.0Q304 122 323 148L351 183L234 338H220Q181 338 158.5 314.0Q136 290 136 249V183Q136 142 160.5 118.0Q185 94 227 94Z" fill="#EDEFF2"/>
<path transform="translate(1200,0)" d="M89 -111V5H140Q177 5 198.0 23.5Q219 42 215 75L195 231Q189 282 219.0 317.5Q249 353 303 362Q249 371 219.0 404.0Q189 437 195 488L215 644Q219 678 198.0 696.5Q177 715 140 715H89V830H158Q216 830 259.5 808.5Q303 787 324.5 748.0Q346 709 340 656L320 499Q310 417 397 417H531V302H397Q310 302 320 219L340 67Q346 13 324.5 -27.0Q303 -67 260.0 -89.0Q217 -111 158 -111Z" fill="#2979FF"/>
</g></svg>