<svg xmlns="http://www.w3.org/2000/svg" viewBox="-21.0 -920.0 11446.0 1121.0" role="img" aria-label="{NandC} Notes and Codes logo">
<g transform="scale(1,-1)">
<path transform="translate(0,0)" d="M442 -111Q354 -111 303.0 -62.5Q252 -14 260 67L275 219Q279 260 261.0 281.0Q243 302 199 302H69V417H199Q243 417 261.0 438.0Q279 459 275 499L260 656Q252 735 303.0 782.5Q354 830 442 830H511V715H460Q423 715 403.0 696.5Q383 678 385 644L400 488Q405 437 373.5 403.5Q342 370 280 362Q342 353 373.5 318.0Q405 283 400 231L385 75Q382 42 402.5 23.5Q423 5 460 5H511V-111Z" fill="#2979FF"/>
<path transform="translate(600,0)" d="M72 0V730H225L428 140Q425 172 422.0 215.5Q419 259 416.5 304.0Q414 349 414 384V730H528V0H375L174 590Q176 561 179.0 520.0Q182 479 184.0 436.0Q186 393 186 357V0Z" fill="#20232A"/>
<path transform="translate(1200,0)" d="M223 -10Q128 -10 72.5 42.5Q17 95 17 183V249Q17 326 57.0 374.0Q97 422 165 430L143 460Q121 490 109.5 519.5Q98 549 98 576Q98 624 121.5 661.0Q145 698 186.5 719.0Q228 740 282 740Q340 740 383.5 715.5Q427 691 451.5 646.5Q476 602 476 544H361Q361 587 339.0 613.0Q317 639 282 639Q252 639 233.0 620.0Q214 601 214 571Q214 557 220.0 541.0Q226 525 236 512L420 269L496 365H624L482 185L621 0H490L415 100L396 76Q367 36 321.0 13.0Q275 -10 223 -10ZM227 94Q257 94 280.5 108.0Q304 122 323 148L351 183L234 338H220Q181 338 158.5 314.0Q136 290 136 249V183Q136 142 160.5 118.0Q185 94 227 94Z" fill="#20232A"/>
<path transform="translate(1800,0)" d="M308 -10Q237 -10 185.0 16.5Q133 43 104.5 91.5Q76 140 76 206V524Q76 590 104.5 638.5Q133 687 185.0 713.5Q237 740 308 740Q378 740 430.0 713.5Q482 687 511.0 638.5Q540 590 540 524H414Q414 575 386.5 602.5Q359 630 308 630Q257 630 229.0 602.5Q201 575 201 524V206Q201 155 229.0 127.5Q257 100 308 100Q359 100 386.5 127.5Q414 155 414 206H540Q540 140 511.0 91.5Q482 43 430.0 16.5Q378 -10 308 -10Z" fill="#20232A"/>
<path transform="translate(2400,0)" d="M89 -111V5H140Q177 5 198.0 23.5Q219 42 215 75L195 231Q189 282 219.0 317.5Q249 353 303 362Q249 371 219.0 404.0Q189 437 195 488L215 644Q219 678 198.0 696.5Q177 715 140 715H89V830H158Q216 830 259.5 808.5Q303 787 324.5 748.0Q346 709 340 656L320 499Q310 417 397 417H531V302H397Q310 302 320 219L340 67Q346 13 324.5 -27.0Q303 -67 260.0 -89.0Q217 -111 158 -111Z" fill="#2979FF"/>
<path transform="translate(3600,0)" d="M72 0V730H225L428 140Q425 172 422.0 215.5Q419 259 416.5 304.0Q414 349 414 384V730H528V0H375L174 590Q176 561 179.0 520.0Q182 479 184.0 436.0Q186 393 186 357V0Z" fill="#20232A"/>
<path transform="translate(4200,0)" d="M300 -9Q194 -9 132.0 50.5Q70 110 70 211V339Q70 441 132.0 500.0Q194 559 300 559Q406 559 468.0 500.0Q530 441 530 339V211Q530 110 468.0 50.5Q406 -9 300 -9ZM300 100Q350 100 377.5 127.5Q405 155 405 207V343Q405 395 377.5 422.5Q350 450 300 450Q250 450 222.5 422.5Q195 395 195 343V207Q195 155 222.5 127.5Q250 100 300 100Z" fill="#20232A"/>
<path transform="translate(4800,0)" d="M355 0Q278 0 232.5 44.5Q187 89 187 165V437H35V550H187V705H313V550H532V437H313V168Q313 144 326.5 128.5Q340 113 364 113H527V0Z" fill="#20232A"/>
<path transform="translate(5400,0)" d="M301 -10Q231 -10 179.0 17.0Q127 44 98.5 93.5Q70 143 70 210V340Q70 407 98.5 456.5Q127 506 179.0 533.0Q231 560 301 560Q370 560 421.5 533.0Q473 506 501.5 457.5Q530 409 530 344V244H190V206Q190 150 219.0 121.5Q248 93 301 93Q340 93 367.5 106.5Q395 120 400 146H524Q511 75 450.0 32.5Q389 -10 301 -10ZM190 344V325L410 326V345Q410 402 382.0 433.0Q354 464 301 464Q246 464 218.0 432.5Q190 401 190 344Z" fill="#20232A"/>
<path transform="translate(6000,0)" d="M277 -9Q179 -9 122.0 35.5Q65 80 65 156H188Q188 124 211.5 107.0Q235 90 277 90H321Q366 90 390.5 107.0Q415 124 415 156Q415 186 398.0 200.5Q381 215 346 220L209 238Q143 247 107.5 289.0Q72 331 72 398Q72 476 124.0 517.5Q176 559 274 559H320Q412 559 468.0 517.0Q524 475 526 405H402Q401 431 379.0 446.5Q357 462 320 462H274Q234 462 213.0 445.5Q192 429 192 401Q192 376 207.5 364.0Q223 352 253 349L382 331Q458 322 496.5 277.5Q535 233 535 158Q535 78 480.5 34.5Q426 -9 321 -9Z" fill="#20232A"/>
<path transform="translate(7200,0)" d="M223 -10Q128 -10 72.5 42.5Q17 95 17 183V249Q17 326 57.0 374.0Q97 422 165 430L143 460Q121 490 109.5 519.5Q98 549 98 576Q98 624 121.5 661.0Q145 698 186.5 719.0Q228 740 282 740Q340 740 383.5 715.5Q427 691 451.5 646.5Q476 602 476 544H361Q361 587 339.0 613.0Q317 639 282 639Q252 639 233.0 620.0Q214 601 214 571Q214 557 220.0 541.0Q226 525 236 512L420 269L496 365H624L482 185L621 0H490L415 100L396 76Q367 36 321.0 13.0Q275 -10 223 -10ZM227 94Q257 94 280.5 108.0Q304 122 323 148L351 183L234 338H220Q181 338 158.5 314.0Q136 290 136 249V183Q136 142 160.5 118.0Q185 94 227 94Z" fill="#20232A"/>
<path transform="translate(8400,0)" d="M308 -10Q237 -10 185.0 16.5Q133 43 104.5 91.5Q76 140 76 206V524Q76 590 104.5 638.5Q133 687 185.0 713.5Q237 740 308 740Q378 740 430.0 713.5Q482 687 511.0 638.5Q540 590 540 524H414Q414 575 386.5 602.5Q359 630 308 630Q257 630 229.0 602.5Q201 575 201 524V206Q201 155 229.0 127.5Q257 100 308 100Q359 100 386.5 127.5Q414 155 414 206H540Q540 140 511.0 91.5Q482 43 430.0 16.5Q378 -10 308 -10Z" fill="#20232A"/>
<path transform="translate(9000,0)" d="M300 -9Q194 -9 132.0 50.5Q70 110 70 211V339Q70 441 132.0 500.0Q194 559 300 559Q406 559 468.0 500.0Q530 441 530 339V211Q530 110 468.0 50.5Q406 -9 300 -9ZM300 100Q350 100 377.5 127.5Q405 155 405 207V343Q405 395 377.5 422.5Q350 450 300 450Q250 450 222.5 422.5Q195 395 195 343V207Q195 155 222.5 127.5Q250 100 300 100Z" fill="#20232A"/>
<path transform="translate(9600,0)" d="M250 -10Q170 -10 120.5 47.0Q71 104 71 200V349Q71 446 120.0 503.0Q169 560 250 560Q307 560 346.5 531.0Q386 502 402 450L398 576V730H523V0H401V100Q386 48 347.0 19.0Q308 -10 250 -10ZM297 98Q345 98 371.5 127.0Q398 156 398 209V341Q398 394 371.5 423.0Q345 452 297 452Q249 452 222.5 426.0Q196 400 196 346V204Q196 150 222.5 124.0Q249 98 297 98Z" fill="#20232A"/>
<path transform="translate(10200,0)" d="M301 -10Q231 -10 179.0 17.0Q127 44 98.5 93.5Q70 143 70 210V340Q70 407 98.5 456.5Q127 506 179.0 533.0Q231 560 301 560Q370 560 421.5 533.0Q473 506 501.5 457.5Q530 409 530 344V244H190V206Q190 150 219.0 121.5Q248 93 301 93Q340 93 367.5 106.5Q395 120 400 146H524Q511 75 450.0 32.5Q389 -10 301 -10ZM190 344V325L410 326V345Q410 402 382.0 433.0Q354 464 301 464Q246 464 218.0 432.5Q190 401 190 344Z" fill="#20232A"/>
<path transform="translate(10800,0)" d="M277 -9Q179 -9 122.0 35.5Q65 80 65 156H188Q188 124 211.5 107.0Q235 90 277 90H321Q366 90 390.5 107.0Q415 124 415 156Q415 186 398.0 200.5Q381 215 346 220L209 238Q143 247 107.5 289.0Q72 331 72 398Q72 476 124.0 517.5Q176 559 274 559H320Q412 559 468.0 517.0Q524 475 526 405H402Q401 431 379.0 446.5Q357 462 320 462H274Q234 462 213.0 445.5Q192 429 192 401Q192 376 207.5 364.0Q223 352 253 349L382 331Q458 322 496.5 277.5Q535 233 535 158Q535 78 480.5 34.5Q426 -9 321 -9Z" fill="#20232A"/>
</g></svg>